<svg xmlns="http://www.w3.org/2000/svg" viewBox="0 0 616 672">
  <title>thread</title>
  <g id="Layer_2" data-name="Layer 2">
    <g id="Layer_1-2" data-name="Layer 1">
      <g>
        <rect y="572" width="616" height="100" style="fill: #a455ff"/>
        <rect y="430" width="616" height="142" style="fill: #a678ff"/>
        <rect y="251" width="616" height="179" style="fill: #8c54d3"/>
        <rect width="616" height="105" style="fill: #8654d6"/>
        <rect y="178" width="616" height="73" style="fill: #9c57ff"/>
        <rect y="105" width="616" height="73" style="fill: #b276ff"/>
        <g>
          <path d="M145.27,76.61a7.32,7.32,0,0,1-3.06-.55V74.28a12.22,12.22,0,0,0,3,.41c3.26,0,4.9-1.78,4.9-5.35V39.56h2.06V69.14Q152.19,76.61,145.27,76.61Z" style="fill: #fff"/>
          <path d="M173.22,69.14l-.51-3.48h-.16a10.47,10.47,0,0,1-3.41,3,9.22,9.22,0,0,1-4.14.88,7.19,7.19,0,0,1-5-1.66,6,6,0,0,1-1.8-4.6,5.67,5.67,0,0,1,2.68-5q2.68-1.77,7.76-1.88l4.19-.12V54.83a7.47,7.47,0,0,0-1.27-4.73,4.93,4.93,0,0,0-4.11-1.6,13.81,13.81,0,0,0-6.34,1.7l-.74-1.74a16.78,16.78,0,0,1,7.16-1.7,7.15,7.15,0,0,1,5.41,1.88c1.2,1.26,1.79,3.21,1.79,5.87V69.14Zm-8.1-1.41a7,7,0,0,0,7.59-7.61V58l-3.84.16c-3.09.15-5.3.63-6.61,1.45a4.17,4.17,0,0,0-2,3.82,4.1,4.1,0,0,0,1.26,3.2A5.14,5.14,0,0,0,165.12,67.73Z" style="fill: #fff"/>
          <path d="M186.63,69.14l-8.5-22h2.07l5.69,15a48.15,48.15,0,0,1,1.7,5h.12c.55-1.84,1.12-3.52,1.7-5.06l5.68-14.92h2.07l-8.5,22Z" style="fill: #fff"/>
          <path d="M214.2,69.14l-.51-3.48h-.16a10.47,10.47,0,0,1-3.41,3,9.22,9.22,0,0,1-4.14.88,7.19,7.19,0,0,1-5-1.66,6,6,0,0,1-1.8-4.6,5.7,5.7,0,0,1,2.68-5q2.69-1.77,7.76-1.88l4.19-.12V54.83a7.47,7.47,0,0,0-1.27-4.73,4.93,4.93,0,0,0-4.11-1.6,13.74,13.74,0,0,0-6.33,1.7l-.75-1.74a16.78,16.78,0,0,1,7.16-1.7q3.63,0,5.41,1.88c1.2,1.26,1.8,3.21,1.8,5.87V69.14Zm-8.1-1.41a7,7,0,0,0,7.59-7.61V58l-3.84.16q-4.64.22-6.61,1.45a4.17,4.17,0,0,0-2,3.82,4.1,4.1,0,0,0,1.26,3.2A5.16,5.16,0,0,0,206.1,67.73Z" style="fill: #fff"/>
          <path d="M236.44,63.42A5.22,5.22,0,0,1,234.19,68a10.9,10.9,0,0,1-6.37,1.59,15.09,15.09,0,0,1-7-1.36V66a15.51,15.51,0,0,0,7,1.66,9.27,9.27,0,0,0,5-1.09,3.3,3.3,0,0,0,1.69-2.88,3.49,3.49,0,0,0-1.35-2.79,14.75,14.75,0,0,0-4.42-2.23,26,26,0,0,1-4.64-2.05,6.48,6.48,0,0,1-2-1.95,4.89,4.89,0,0,1-.68-2.64,4.49,4.49,0,0,1,2.08-3.9,10,10,0,0,1,5.79-1.44A17.34,17.34,0,0,1,236,48.05l-.74,1.83a15.91,15.91,0,0,0-6-1.34,8.78,8.78,0,0,0-4.27.89,2.73,2.73,0,0,0-1.57,2.47,3.4,3.4,0,0,0,1.22,2.75A17,17,0,0,0,229.4,57a23.75,23.75,0,0,1,4.33,1.93,6.37,6.37,0,0,1,2,2A4.76,4.76,0,0,1,236.44,63.42Z" style="fill: #fff"/>
          <path d="M250.89,69.55a9.41,9.41,0,0,1-7.39-3q-2.67-3-2.67-8.3t2.77-8.5a9.73,9.73,0,0,1,7.59-3.05,15.28,15.28,0,0,1,5.47,1l-.55,1.78a16.12,16.12,0,0,0-5-1A7.51,7.51,0,0,0,245,51c-1.39,1.67-2.08,4.06-2.08,7.19a10.64,10.64,0,0,0,2.08,7,7.14,7.14,0,0,0,5.83,2.52,14.17,14.17,0,0,0,5.56-1.08v1.87A12.7,12.7,0,0,1,250.89,69.55Z" style="fill: #fff"/>
          <path d="M270.46,46.72a17,17,0,0,1,3,.28l-.38,1.93a11.71,11.71,0,0,0-2.85-.35A5.55,5.55,0,0,0,265.6,51a9.73,9.73,0,0,0-1.8,6V69.14h-2v-22h1.7l.2,4h.14a9.39,9.39,0,0,1,2.9-3.41A6.78,6.78,0,0,1,270.46,46.72Z" style="fill: #fff"/>
          <path d="M277.64,41c0-1.29.43-1.94,1.28-1.94a1.13,1.13,0,0,1,1,.51,2.42,2.42,0,0,1,.35,1.43,2.52,2.52,0,0,1-.35,1.44,1.13,1.13,0,0,1-1,.53C278.07,43,277.64,42.34,277.64,41Zm2.29,28.11h-2v-22h2Z" style="fill: #fff"/>
          <path d="M296.71,69.55q-5.08,0-7.41-3.81h-.14l.06,1.7c0,1,.08,2.09.08,3.28V79.1h-2v-32H289l.38,3.14h.12q2.26-3.56,7.25-3.56a8.17,8.17,0,0,1,6.79,2.92q2.34,2.93,2.34,8.51,0,5.43-2.46,8.41A8.24,8.24,0,0,1,296.71,69.55Zm0-1.78a6.14,6.14,0,0,0,5.23-2.51,11.7,11.7,0,0,0,1.85-7q0-9.69-7-9.69-3.86,0-5.65,2.12c-1.2,1.41-1.8,3.7-1.8,6.89v.64q0,5.16,1.73,7.37T296.67,67.77Z" style="fill: #fff"/>
          <path d="M317.78,67.77a14.7,14.7,0,0,0,3.31-.33v1.62a10.43,10.43,0,0,1-3.36.49,5.48,5.48,0,0,1-4.3-1.56q-1.38-1.56-1.38-4.9V48.88h-3.26V47.71l3.26-.91,1-5h1v5.32h6.46v1.74h-6.46V62.81a6.38,6.38,0,0,0,.89,3.74A3.25,3.25,0,0,0,317.78,67.77Z" style="fill: #fff"/>
          <path d="M354.93,48.05A7.86,7.86,0,0,1,352,54.63q-2.92,2.29-8.26,2.29h-4.57V69.14h-2.07V39.56h7.25Q354.93,39.56,354.93,48.05Zm-15.74,7.09h4.06c3.34,0,5.74-.55,7.23-1.65s2.23-2.89,2.23-5.35a6.06,6.06,0,0,0-2.11-5.07c-1.4-1.1-3.58-1.65-6.52-1.65h-4.89Z" style="fill: #fff"/>
          <path d="M374.22,69.14l-.51-3.48h-.16a10.47,10.47,0,0,1-3.41,3,9.22,9.22,0,0,1-4.14.88,7.19,7.19,0,0,1-5-1.66,6,6,0,0,1-1.8-4.6,5.67,5.67,0,0,1,2.68-5q2.69-1.77,7.76-1.88l4.19-.12V54.83a7.47,7.47,0,0,0-1.27-4.73,4.93,4.93,0,0,0-4.11-1.6,13.74,13.74,0,0,0-6.33,1.7l-.75-1.74a16.78,16.78,0,0,1,7.16-1.7q3.63,0,5.41,1.88c1.2,1.26,1.8,3.21,1.8,5.87V69.14Zm-8.1-1.41a7,7,0,0,0,7.59-7.61V58l-3.84.16c-3.09.15-5.3.63-6.61,1.45a4.17,4.17,0,0,0-2,3.82,4.1,4.1,0,0,0,1.26,3.2A5.14,5.14,0,0,0,366.12,67.73Z" style="fill: #fff"/>
          <path d="M391.48,46.72a17.18,17.18,0,0,1,3,.28l-.39,1.93a11.71,11.71,0,0,0-2.85-.35A5.55,5.55,0,0,0,386.62,51a9.73,9.73,0,0,0-1.8,6V69.14h-2v-22h1.7l.2,4h.14a9.39,9.39,0,0,1,2.9-3.41A6.78,6.78,0,0,1,391.48,46.72Z" style="fill: #fff"/>
          <path d="M412.59,63.42A5.22,5.22,0,0,1,410.34,68,10.92,10.92,0,0,1,404,69.55a15.09,15.09,0,0,1-7-1.36V66a15.51,15.51,0,0,0,7,1.66,9.27,9.27,0,0,0,4.95-1.09,3.3,3.3,0,0,0,1.69-2.88,3.49,3.49,0,0,0-1.35-2.79,14.75,14.75,0,0,0-4.42-2.23,26,26,0,0,1-4.64-2.05,6.48,6.48,0,0,1-2-1.95,4.89,4.89,0,0,1-.68-2.64,4.49,4.49,0,0,1,2.08-3.9,10,10,0,0,1,5.79-1.44,17.34,17.34,0,0,1,6.76,1.33l-.74,1.83a15.91,15.91,0,0,0-6-1.34,8.78,8.78,0,0,0-4.27.89,2.73,2.73,0,0,0-1.57,2.47,3.4,3.4,0,0,0,1.22,2.75A17,17,0,0,0,405.55,57a23.75,23.75,0,0,1,4.33,1.93,6.37,6.37,0,0,1,2,2A4.76,4.76,0,0,1,412.59,63.42Z" style="fill: #fff"/>
          <path d="M418,41c0-1.29.43-1.94,1.28-1.94a1.13,1.13,0,0,1,1,.51,2.49,2.49,0,0,1,.35,1.43,2.6,2.6,0,0,1-.35,1.44,1.13,1.13,0,0,1-1,.53C418.4,43,418,42.34,418,41Zm2.29,28.11h-2v-22h2Z" style="fill: #fff"/>
          <path d="M443,69.14V54.88q0-3.33-1.4-4.83a5.62,5.62,0,0,0-4.33-1.51c-2.63,0-4.56.67-5.78,2S429.63,54,429.63,57V69.14h-2v-22h1.7l.38,3h.12q2.15-3.44,7.63-3.44,7.49,0,7.49,8V69.14Z" style="fill: #fff"/>
          <path d="M469.23,47.14v1.4l-4.55.28a7.74,7.74,0,0,1,1.82,5A6.7,6.7,0,0,1,464.39,59a8,8,0,0,1-5.68,2,11.13,11.13,0,0,1-2.1-.13,5.21,5.21,0,0,0-1.82,1.48,3,3,0,0,0-.63,1.8,1.65,1.65,0,0,0,.8,1.54,5.45,5.45,0,0,0,2.68.49h3.84A9,9,0,0,1,467,67.55a5.05,5.05,0,0,1,1.9,4.28,6.11,6.11,0,0,1-2.82,5.38c-1.88,1.26-4.57,1.89-8.05,1.89a11,11,0,0,1-6.42-1.6,5.14,5.14,0,0,1-2.28-4.45,5.29,5.29,0,0,1,1.41-3.77,7.29,7.29,0,0,1,3.81-2,3.86,3.86,0,0,1-1.59-1.2,2.92,2.92,0,0,1-.59-1.79c0-1.48.93-2.77,2.81-3.89a6.32,6.32,0,0,1-3-2.48A7.13,7.13,0,0,1,451.08,54a7,7,0,0,1,2.1-5.29,7.84,7.84,0,0,1,5.65-2,10.5,10.5,0,0,1,3.36.42Zm-17.8,25.73q0,4.53,6.73,4.53,8.67,0,8.67-5.53A3.19,3.19,0,0,0,465.47,69a8.29,8.29,0,0,0-4.39-.89h-3.6C453.44,68.11,451.43,69.7,451.43,72.87ZM453.11,54a5.09,5.09,0,0,0,1.54,4A6.92,6.92,0,0,0,463,58a5.32,5.32,0,0,0,1.47-4A5.49,5.49,0,0,0,463,49.7a6,6,0,0,0-4.22-1.4,5.59,5.59,0,0,0-4.14,1.51A5.67,5.67,0,0,0,453.11,54Z" style="fill: #fff"/>
        </g>
        <g>
          <path d="M231.83,143.7h-12l-4.12,10.44h-2.29l11.9-29.71h1.31l11.66,29.71h-2.33Zm-11.28-1.86h10.59l-4-10.67c-.34-.83-.74-2-1.21-3.48a33.5,33.5,0,0,1-1.2,3.52Z" style="fill: #fff"/>
          <path d="M257.28,154.14V139.88q0-3.33-1.39-4.83a5.62,5.62,0,0,0-4.33-1.51c-2.63,0-4.56.67-5.78,2S244,139,244,142v12.14h-2v-22h1.7l.39,3h.12q2.15-3.43,7.63-3.44,7.48,0,7.49,8v14.39Z" style="fill: #fff"/>
          <path d="M266.11,126c0-1.29.42-1.94,1.27-1.94a1.12,1.12,0,0,1,1,.51,2.42,2.42,0,0,1,.36,1.43,2.51,2.51,0,0,1-.36,1.44,1.11,1.11,0,0,1-1,.53C266.53,128,266.11,127.34,266.11,126Zm2.29,28.11h-2v-22h2Z" style="fill: #fff"/>
          <path d="M303.24,154.14V139.71c0-2.14-.41-3.71-1.25-4.69a4.76,4.76,0,0,0-3.85-1.48,6.25,6.25,0,0,0-5,1.86q-1.62,1.86-1.62,5.85v12.89h-2v-15q0-5.56-5.1-5.57-3.45,0-5,2T277.77,142v12.14h-2v-22h1.66l.43,3H278a6.28,6.28,0,0,1,2.59-2.54,7.7,7.7,0,0,1,3.7-.9c3.47,0,5.69,1.3,6.68,3.9H291a7.61,7.61,0,0,1,2.88-2.89,8.35,8.35,0,0,1,4.12-1,7.08,7.08,0,0,1,5.41,1.92q1.8,1.92,1.8,6.11v14.39Z" style="fill: #fff"/>
          <path d="M325.71,154.14l-.51-3.48H325a10.47,10.47,0,0,1-3.41,3,9.22,9.22,0,0,1-4.14.88,7.19,7.19,0,0,1-5-1.66,6,6,0,0,1-1.8-4.6,5.67,5.67,0,0,1,2.68-5q2.69-1.77,7.76-1.88l4.19-.12v-1.46A7.47,7.47,0,0,0,324,135.1a4.93,4.93,0,0,0-4.11-1.6,13.74,13.74,0,0,0-6.33,1.7l-.75-1.74a16.78,16.78,0,0,1,7.16-1.7q3.63,0,5.41,1.88c1.2,1.26,1.8,3.21,1.8,5.87v14.63Zm-8.1-1.41a7,7,0,0,0,7.59-7.61V143l-3.84.16c-3.09.15-5.3.63-6.61,1.45a4.17,4.17,0,0,0-2,3.82,4.1,4.1,0,0,0,1.26,3.2A5.16,5.16,0,0,0,317.61,152.73Z" style="fill: #fff"/>
          <path d="M340.12,152.77a14.79,14.79,0,0,0,3.32-.33v1.62a10.52,10.52,0,0,1-3.36.49,5.45,5.45,0,0,1-4.3-1.56q-1.39-1.56-1.39-4.9V133.88h-3.26v-1.17l3.26-.91,1-5h1v5.32h6.46v1.74h-6.46v13.93a6.38,6.38,0,0,0,.89,3.74A3.25,3.25,0,0,0,340.12,152.77Z" style="fill: #fff"/>
          <path d="M347.91,126c0-1.29.42-1.94,1.27-1.94a1.15,1.15,0,0,1,1,.51,2.49,2.49,0,0,1,.35,1.43,2.6,2.6,0,0,1-.35,1.44,1.14,1.14,0,0,1-1,.53C348.33,128,347.91,127.34,347.91,126Zm2.29,28.11h-2v-22h2Z" style="fill: #fff"/>
          <path d="M375.76,143.11q0,5.38-2.61,8.41a9,9,0,0,1-7.21,3,9.34,9.34,0,0,1-5.1-1.4,8.93,8.93,0,0,1-3.38-4,14.61,14.61,0,0,1-1.17-6c0-3.59.87-6.38,2.61-8.39a9,9,0,0,1,7.16-3,8.81,8.81,0,0,1,7.12,3.05Q375.76,137.82,375.76,143.11Zm-17.37,0a11.21,11.21,0,0,0,2,7.08,7.52,7.52,0,0,0,11.27,0,11.21,11.21,0,0,0,2-7.08c0-3-.67-5.39-2-7.06a6.87,6.87,0,0,0-5.66-2.51,6.71,6.71,0,0,0-5.61,2.5C359.05,137.71,358.39,140.06,358.39,143.11Z" style="fill: #fff"/>
          <path d="M397.19,154.14V139.88q0-3.33-1.4-4.83a5.61,5.61,0,0,0-4.33-1.51c-2.63,0-4.56.67-5.78,2s-1.83,3.49-1.83,6.47v12.14h-2v-22h1.7l.38,3h.12c1.43-2.29,4-3.44,7.63-3.44q7.49,0,7.49,8v14.39Z" style="fill: #fff"/>
        </g>
        <g>
          <path d="M209.28,198a11.18,11.18,0,0,0-8.76,3.56q-3.2,3.57-3.2,9.76t3,9.83q3,3.51,8.62,3.51a23.17,23.17,0,0,0,6.84-1v1.83a22.57,22.57,0,0,1-7.33,1c-4.15,0-7.43-1.34-9.81-4s-3.59-6.44-3.59-11.25a17.69,17.69,0,0,1,1.71-8A12.4,12.4,0,0,1,201.7,198a14.53,14.53,0,0,1,7.46-1.87,17.88,17.88,0,0,1,7.75,1.62l-.83,1.86A15,15,0,0,0,209.28,198Z" style="fill: #fff"/>
          <path d="M238.73,218.51a7.09,7.09,0,0,1-2.73,5.87,11.23,11.23,0,0,1-7.23,2.17,22.56,22.56,0,0,1-8.32-1.2v-2.06a21.12,21.12,0,0,0,8.16,1.36,9.17,9.17,0,0,0,5.78-1.67,5.32,5.32,0,0,0,2.13-4.39,5.08,5.08,0,0,0-.71-2.78,6.4,6.4,0,0,0-2.31-2,28.7,28.7,0,0,0-4.69-2c-3-1-5.11-2.16-6.26-3.37a7.22,7.22,0,0,1,.87-10.24,10.34,10.34,0,0,1,6.68-2.09,19.68,19.68,0,0,1,7.84,1.58l-.75,1.78a18.23,18.23,0,0,0-7-1.54,8.3,8.3,0,0,0-5.23,1.52A5,5,0,0,0,223,203.6a5.38,5.38,0,0,0,.6,2.69,5.54,5.54,0,0,0,1.95,1.89,27.52,27.52,0,0,0,4.66,2,24.91,24.91,0,0,1,5.2,2.31,7.52,7.52,0,0,1,2.54,2.55A7,7,0,0,1,238.73,218.51Z" style="fill: #fff"/>
          <path d="M261.31,218.51a7.11,7.11,0,0,1-2.72,5.87,11.27,11.27,0,0,1-7.24,2.17,22.54,22.54,0,0,1-8.31-1.2v-2.06a21.1,21.1,0,0,0,8.15,1.36A9.15,9.15,0,0,0,257,223a5.33,5.33,0,0,0,2.14-4.39,5.08,5.08,0,0,0-.71-2.78,6.48,6.48,0,0,0-2.31-2,29.1,29.1,0,0,0-4.69-2c-3-1-5.11-2.16-6.27-3.37a7.22,7.22,0,0,1,.87-10.24,10.37,10.37,0,0,1,6.69-2.09,19.6,19.6,0,0,1,7.83,1.58l-.75,1.78a18.15,18.15,0,0,0-7-1.54,8.25,8.25,0,0,0-5.22,1.52,4.94,4.94,0,0,0-1.94,4.13,4.73,4.73,0,0,0,2.55,4.58,27,27,0,0,0,4.65,2,24.67,24.67,0,0,1,5.2,2.31,7.43,7.43,0,0,1,2.54,2.55A7,7,0,0,1,261.31,218.51Z" style="fill: #fff"/>
          <path d="M296.14,205.05a7.86,7.86,0,0,1-2.91,6.58q-2.93,2.3-8.26,2.29H280.4v12.22h-2.07V196.56h7.25Q296.14,196.56,296.14,205.05Zm-15.74,7.09h4.06c3.34,0,5.74-.55,7.23-1.65s2.23-2.89,2.23-5.35a6.06,6.06,0,0,0-2.11-5.07c-1.4-1.1-3.58-1.65-6.52-1.65H280.4Z" style="fill: #fff"/>
          <path d="M315.43,226.14l-.51-3.48h-.16a10.47,10.47,0,0,1-3.41,3,9.22,9.22,0,0,1-4.14.88,7.19,7.19,0,0,1-5-1.66,6,6,0,0,1-1.8-4.6,5.67,5.67,0,0,1,2.68-5q2.68-1.77,7.76-1.88l4.19-.12v-1.46a7.47,7.47,0,0,0-1.27-4.73,4.93,4.93,0,0,0-4.11-1.6,13.81,13.81,0,0,0-6.34,1.7l-.74-1.74a16.78,16.78,0,0,1,7.16-1.7q3.63,0,5.41,1.88c1.2,1.26,1.79,3.21,1.79,5.87v14.63Zm-8.1-1.41a7,7,0,0,0,7.59-7.61V215l-3.84.16c-3.09.15-5.3.63-6.61,1.45a4.17,4.17,0,0,0-2,3.82,4.1,4.1,0,0,0,1.26,3.2A5.14,5.14,0,0,0,307.33,224.73Z" style="fill: #fff"/>
          <path d="M323.75,198c0-1.29.42-1.94,1.27-1.94a1.13,1.13,0,0,1,1,.51,2.42,2.42,0,0,1,.36,1.43,2.51,2.51,0,0,1-.36,1.44,1.13,1.13,0,0,1-1,.53C324.17,200,323.75,199.34,323.75,198ZM326,226.14h-2v-22h2Z" style="fill: #fff"/>
          <path d="M348.74,226.14V211.88q0-3.33-1.4-4.83a5.61,5.61,0,0,0-4.33-1.51c-2.63,0-4.56.67-5.78,2S335.4,211,335.4,214v12.14h-2v-22h1.7l.38,3h.12c1.43-2.29,4-3.44,7.63-3.44q7.5,0,7.49,8v14.39Z" style="fill: #fff"/>
          <path d="M363.65,224.77a14.73,14.73,0,0,0,3.32-.33v1.62a10.43,10.43,0,0,1-3.36.49,5.48,5.48,0,0,1-4.3-1.56q-1.38-1.56-1.38-4.9V205.88h-3.26v-1.17l3.26-.91,1-5h1v5.32h6.46v1.74H360v13.93a6.38,6.38,0,0,0,.89,3.74A3.23,3.23,0,0,0,363.65,224.77Z" style="fill: #fff"/>
          <path d="M371.45,198c0-1.29.42-1.94,1.27-1.94a1.13,1.13,0,0,1,1,.51,2.42,2.42,0,0,1,.36,1.43,2.51,2.51,0,0,1-.36,1.44,1.13,1.13,0,0,1-1,.53C371.87,200,371.45,199.34,371.45,198Zm2.28,28.11h-2v-22h2Z" style="fill: #fff"/>
          <path d="M396.44,226.14V211.88q0-3.33-1.4-4.83a5.61,5.61,0,0,0-4.33-1.51c-2.63,0-4.56.67-5.78,2S383.1,211,383.1,214v12.14h-2v-22h1.7l.38,3h.12c1.43-2.29,4-3.44,7.63-3.44q7.5,0,7.49,8v14.39Z" style="fill: #fff"/>
          <path d="M422.71,204.14v1.4l-4.56.28a7.74,7.74,0,0,1,1.82,5,6.7,6.7,0,0,1-2.11,5.15,8,8,0,0,1-5.68,2,11.13,11.13,0,0,1-2.1-.13,5.31,5.31,0,0,0-1.82,1.48,3,3,0,0,0-.63,1.8,1.67,1.67,0,0,0,.8,1.54,5.48,5.48,0,0,0,2.68.49H415a9,9,0,0,1,5.48,1.44,5.05,5.05,0,0,1,1.9,4.28,6.11,6.11,0,0,1-2.82,5.38q-2.82,1.89-8,1.89a11,11,0,0,1-6.43-1.6,5.14,5.14,0,0,1-2.28-4.45,5.29,5.29,0,0,1,1.41-3.77,7.33,7.33,0,0,1,3.81-2,3.77,3.77,0,0,1-1.58-1.2,2.86,2.86,0,0,1-.6-1.79c0-1.48.94-2.77,2.81-3.89a6.25,6.25,0,0,1-3-2.48,7.06,7.06,0,0,1-1.08-3.88,7,7,0,0,1,2.1-5.29,7.84,7.84,0,0,1,5.65-2,10.5,10.5,0,0,1,3.36.42ZM404.9,229.87c0,3,2.24,4.53,6.74,4.53q8.66,0,8.66-5.53a3.16,3.16,0,0,0-1.36-2.87,8.26,8.26,0,0,0-4.39-.89H411Q404.91,225.11,404.9,229.87ZM406.58,211a5.06,5.06,0,0,0,1.55,4,6.9,6.9,0,0,0,8.35,0,5.32,5.32,0,0,0,1.47-4.05,5.49,5.49,0,0,0-1.51-4.22,6,6,0,0,0-4.22-1.4,5.59,5.59,0,0,0-4.14,1.51A5.67,5.67,0,0,0,406.58,211Z" style="fill: #fff"/>
        </g>
        <g>
          <path d="M163.15,341.7h-12L147,352.14h-2.29l11.9-29.71h1.32l11.65,29.71h-2.32Zm-11.27-1.86h10.58l-4-10.67c-.33-.83-.74-2-1.21-3.48a31.35,31.35,0,0,1-1.2,3.52Z" style="fill: #fff"/>
          <path d="M186.91,346.42a5.23,5.23,0,0,1-2.25,4.54,10.92,10.92,0,0,1-6.37,1.59,15.14,15.14,0,0,1-7-1.36V349a15.58,15.58,0,0,0,7,1.66,9.21,9.21,0,0,0,4.94-1.09,3.28,3.28,0,0,0,1.69-2.88,3.48,3.48,0,0,0-1.34-2.79,14.75,14.75,0,0,0-4.42-2.23,26,26,0,0,1-4.64-2.05,6.48,6.48,0,0,1-2-1.95,4.89,4.89,0,0,1-.68-2.64,4.5,4.5,0,0,1,2.07-3.9,10.09,10.09,0,0,1,5.8-1.44,17.34,17.34,0,0,1,6.76,1.33l-.75,1.83a15.87,15.87,0,0,0-6-1.34,8.75,8.75,0,0,0-4.27.89,2.74,2.74,0,0,0-1.58,2.47,3.41,3.41,0,0,0,1.23,2.75,16.92,16.92,0,0,0,4.78,2.31,23.59,23.59,0,0,1,4.34,1.93,6.37,6.37,0,0,1,2,2A4.76,4.76,0,0,1,186.91,346.42Z" style="fill: #fff"/>
          <path d="M188.89,330.14H191l4.65,12.35c1.42,3.79,2.31,6.35,2.69,7.67h.12c.57-1.74,1.49-4.34,2.78-7.79l4.65-12.23h2.06l-9.85,25.57a19.87,19.87,0,0,1-2,4.2,5.24,5.24,0,0,1-1.89,1.64,5.67,5.67,0,0,1-2.62.55,8.84,8.84,0,0,1-2.57-.43v-1.74a9.32,9.32,0,0,0,2.53.33,3.33,3.33,0,0,0,1.82-.49,4.45,4.45,0,0,0,1.43-1.51,20.33,20.33,0,0,0,1.48-3.23c.56-1.48.92-2.44,1.08-2.89Z" style="fill: #fff"/>
          <path d="M226.94,352.14V337.88q0-3.33-1.4-4.83a5.61,5.61,0,0,0-4.33-1.51c-2.63,0-4.56.67-5.78,2S213.6,337,213.6,340v12.14h-2v-22h1.7l.38,3h.12c1.43-2.29,4-3.44,7.63-3.44q7.5,0,7.49,8v14.39Z" style="fill: #fff"/>
          <path d="M244.83,352.55a9.4,9.4,0,0,1-7.39-3c-1.78-2-2.67-4.75-2.67-8.29s.92-6.48,2.77-8.51a9.73,9.73,0,0,1,7.59-3,15.36,15.36,0,0,1,5.47,1l-.55,1.78a16.17,16.17,0,0,0-5-.95A7.51,7.51,0,0,0,239,334c-1.39,1.67-2.09,4.06-2.09,7.19a10.65,10.65,0,0,0,2.09,7,7.14,7.14,0,0,0,5.83,2.52,14.2,14.2,0,0,0,5.56-1.08v1.87A12.7,12.7,0,0,1,244.83,352.55Z" style="fill: #fff"/>
          <path d="M291.88,337.31q0,7-3.52,11.14a13.54,13.54,0,0,1-19.41,0q-3.52-4.09-3.52-11.18T269,326.15a12.22,12.22,0,0,1,9.71-4.06c4.12,0,7.36,1.36,9.69,4.08S291.88,332.6,291.88,337.31Zm-24.2,0q0,6.35,2.83,9.82c1.89,2.32,4.6,3.47,8.14,3.47s6.28-1.14,8.16-3.44,2.82-5.57,2.82-9.85-.94-7.53-2.82-9.81-4.59-3.41-8.12-3.41-6.24,1.15-8.15,3.44S267.68,333.09,267.68,337.31Z" style="fill: #fff"/>
          <path d="M307.58,352.55q-5.07,0-7.4-3.81H300l.06,1.7c0,1,.08,2.09.08,3.28v8.38h-2v-32h1.7l.39,3.14h.12q2.26-3.55,7.25-3.56a8.19,8.19,0,0,1,6.79,2.92q2.32,2.92,2.33,8.51,0,5.43-2.46,8.41A8.23,8.23,0,0,1,307.58,352.55Zm0-1.78a6.14,6.14,0,0,0,5.24-2.51,11.7,11.7,0,0,0,1.85-7q0-9.69-7-9.69-3.86,0-5.65,2.12c-1.2,1.41-1.8,3.7-1.8,6.89v.64c0,3.44.57,5.9,1.73,7.37S304.94,350.77,307.54,350.77Z" style="fill: #fff"/>
          <path d="M331.73,352.55a9.59,9.59,0,0,1-7.48-3q-2.69-3-2.68-8.27a12.88,12.88,0,0,1,2.59-8.43,8.53,8.53,0,0,1,7-3.17,7.52,7.52,0,0,1,6.13,2.71,11.19,11.19,0,0,1,2.25,7.37v1.62H323.67q0,4.53,2.12,6.92a7.44,7.44,0,0,0,5.94,2.39,18,18,0,0,0,3.31-.27,19.72,19.72,0,0,0,3.61-1.13v1.82a15.78,15.78,0,0,1-3.44,1.1A18.65,18.65,0,0,1,331.73,352.55Zm-.59-21.05a6.6,6.6,0,0,0-5.1,2.09,9.87,9.87,0,0,0-2.24,6.05h13.6a9.62,9.62,0,0,0-1.66-6A5.48,5.48,0,0,0,331.14,331.5Z" style="fill: #fff"/>
          <path d="M354.25,329.72a17.18,17.18,0,0,1,3,.28l-.39,1.93a11.59,11.59,0,0,0-2.85-.35A5.53,5.53,0,0,0,349.4,334a9.73,9.73,0,0,0-1.81,6v12.14h-2v-22h1.7l.2,4h.15a9.28,9.28,0,0,1,2.89-3.41A6.81,6.81,0,0,1,354.25,329.72Z" style="fill: #fff"/>
          <path d="M375.08,352.14l-.51-3.48h-.16a10.47,10.47,0,0,1-3.41,3,9.22,9.22,0,0,1-4.14.88,7.19,7.19,0,0,1-5-1.66,6,6,0,0,1-1.8-4.6,5.7,5.7,0,0,1,2.68-5q2.69-1.77,7.76-1.88l4.19-.12v-1.46a7.47,7.47,0,0,0-1.27-4.73,4.93,4.93,0,0,0-4.11-1.6,13.74,13.74,0,0,0-6.33,1.7l-.75-1.74a16.78,16.78,0,0,1,7.16-1.7q3.63,0,5.41,1.88c1.2,1.26,1.8,3.21,1.8,5.87v14.63Zm-8.1-1.41a7,7,0,0,0,7.59-7.61V341l-3.84.16c-3.09.15-5.3.63-6.61,1.45a4.17,4.17,0,0,0-2,3.82,4.1,4.1,0,0,0,1.26,3.2A5.16,5.16,0,0,0,367,350.73Z" style="fill: #fff"/>
          <path d="M389.49,350.77a14.79,14.79,0,0,0,3.32-.33v1.62a10.8,10.8,0,0,1-3.36.49,5.45,5.45,0,0,1-4.3-1.56q-1.39-1.56-1.39-4.9V331.88H380.5v-1.17l3.26-.91,1-5h1v5.32h6.46v1.74H385.8v13.93a6.38,6.38,0,0,0,.89,3.74A3.25,3.25,0,0,0,389.49,350.77Z" style="fill: #fff"/>
          <path d="M397.28,324c0-1.29.42-1.94,1.27-1.94a1.15,1.15,0,0,1,1,.51,2.49,2.49,0,0,1,.35,1.43,2.6,2.6,0,0,1-.35,1.44,1.14,1.14,0,0,1-1,.53C397.7,326,397.28,325.34,397.28,324Zm2.29,28.11h-2v-22h2Z" style="fill: #fff"/>
          <path d="M425.13,341.11q0,5.38-2.61,8.41a9,9,0,0,1-7.21,3,9.34,9.34,0,0,1-5.1-1.4,8.93,8.93,0,0,1-3.38-4,14.61,14.61,0,0,1-1.17-6c0-3.59.87-6.38,2.61-8.39a9,9,0,0,1,7.16-3,8.81,8.81,0,0,1,7.12,3Q425.13,335.82,425.13,341.11Zm-17.37,0a11.23,11.23,0,0,0,2,7.08,7.52,7.52,0,0,0,11.27,0,11.23,11.23,0,0,0,2-7.08c0-3-.67-5.39-2-7.06a6.85,6.85,0,0,0-5.66-2.51,6.71,6.71,0,0,0-5.61,2.5C408.42,335.71,407.76,338.06,407.76,341.11Z" style="fill: #fff"/>
          <path d="M446.56,352.14V337.88q0-3.33-1.4-4.83a5.61,5.61,0,0,0-4.33-1.51c-2.63,0-4.56.67-5.78,2s-1.83,3.49-1.83,6.47v12.14h-2v-22h1.7l.38,3h.12c1.43-2.29,4-3.44,7.63-3.44q7.49,0,7.49,8v14.39Z" style="fill: #fff"/>
          <path d="M469.3,346.42a5.23,5.23,0,0,1-2.24,4.54,10.93,10.93,0,0,1-6.38,1.59,15.12,15.12,0,0,1-7-1.36V349a15.54,15.54,0,0,0,7,1.66,9.25,9.25,0,0,0,4.95-1.09,3.28,3.28,0,0,0,1.69-2.88,3.51,3.51,0,0,0-1.34-2.79,14.83,14.83,0,0,0-4.43-2.23,25.79,25.79,0,0,1-4.63-2.05,6.48,6.48,0,0,1-2-1.95,4.8,4.8,0,0,1-.68-2.64,4.5,4.5,0,0,1,2.07-3.9,10.07,10.07,0,0,1,5.8-1.44,17.38,17.38,0,0,1,6.76,1.33l-.75,1.83a15.87,15.87,0,0,0-6-1.34,8.75,8.75,0,0,0-4.27.89,2.74,2.74,0,0,0-1.58,2.47,3.41,3.41,0,0,0,1.23,2.75,16.92,16.92,0,0,0,4.78,2.31,23.12,23.12,0,0,1,4.33,1.93,6.41,6.41,0,0,1,2,2A4.76,4.76,0,0,1,469.3,346.42Z" style="fill: #fff"/>
        </g>
        <g>
          <path d="M176.69,499.07q0,7.44-3.91,11.26t-11.47,3.81h-7.09V484.55h8q7.08,0,10.77,3.71T176.69,499.07Zm-2.25.08q0-6.36-3.23-9.57t-9.48-3.2h-5.44v25.94h4.9Q174.44,512.32,174.44,499.15Z" style="fill: #fff"/>
          <path d="M208.36,499.31q0,7-3.52,11.14a13.54,13.54,0,0,1-19.41,0q-3.52-4.09-3.52-11.18t3.55-11.12a12.21,12.21,0,0,1,9.7-4.06q6.19,0,9.7,4.08T208.36,499.31Zm-24.2,0q0,6.35,2.83,9.82c1.89,2.32,4.6,3.47,8.13,3.47s6.29-1.14,8.17-3.44,2.82-5.57,2.82-9.85-.94-7.53-2.82-9.81-4.59-3.41-8.13-3.41a10,10,0,0,0-8.14,3.44Q184.16,493,184.16,499.31Z" style="fill: #fff"/>
          <path d="M228.17,514.14l-11-27.32H217c.11,1.67.16,3.39.16,5.14v22.18h-2V484.55h3.2l10.48,26H229l10.49-26h3.11v29.59h-2.08V491.72c0-1.57.08-3.18.24-4.86h-.16l-11.07,27.28Z" style="fill: #fff"/>
          <path d="M286.56,499.31q0,7-3.52,11.14a13.54,13.54,0,0,1-19.41,0q-3.53-4.09-3.52-11.18t3.55-11.12a12.21,12.21,0,0,1,9.7-4.06q6.19,0,9.7,4.08T286.56,499.31Zm-24.21,0q0,6.35,2.84,9.82c1.89,2.32,4.6,3.47,8.13,3.47s6.29-1.14,8.17-3.44,2.82-5.57,2.82-9.85-.94-7.53-2.82-9.81-4.59-3.41-8.13-3.41a10,10,0,0,0-8.14,3.44Q262.36,493,262.35,499.31Z" style="fill: #fff"/>
          <path d="M302.26,514.55q-5.07,0-7.4-3.81h-.15l.06,1.7c.06,1,.09,2.09.09,3.28v8.38h-2v-32h1.7l.39,3.14h.12q2.26-3.55,7.24-3.56a8.17,8.17,0,0,1,6.79,2.92q2.34,2.92,2.34,8.51,0,5.43-2.46,8.41A8.23,8.23,0,0,1,302.26,514.55Zm0-1.78a6.11,6.11,0,0,0,5.23-2.51,11.63,11.63,0,0,0,1.86-7q0-9.69-7-9.69-3.84,0-5.64,2.12c-1.2,1.41-1.8,3.7-1.8,6.89v.64c0,3.44.57,5.9,1.73,7.37S299.62,512.77,302.22,512.77Z" style="fill: #fff"/>
          <path d="M326.41,514.55a9.59,9.59,0,0,1-7.48-3q-2.69-3-2.68-8.27a12.88,12.88,0,0,1,2.59-8.43,8.54,8.54,0,0,1,7-3.17,7.53,7.53,0,0,1,6.13,2.71,11.19,11.19,0,0,1,2.25,7.37v1.62H318.35c0,3,.73,5.33,2.12,6.92a7.44,7.44,0,0,0,5.94,2.39,18.08,18.08,0,0,0,3.31-.27,19.72,19.72,0,0,0,3.61-1.13v1.82a15.78,15.78,0,0,1-3.44,1.1A18.8,18.8,0,0,1,326.41,514.55Zm-.59-21a6.6,6.6,0,0,0-5.1,2.09,9.93,9.93,0,0,0-2.25,6.05h13.6a9.55,9.55,0,0,0-1.66-6A5.45,5.45,0,0,0,325.82,493.5Z" style="fill: #fff"/>
          <path d="M348.93,491.72a17.18,17.18,0,0,1,3,.28l-.39,1.93a11.71,11.71,0,0,0-2.85-.35,5.55,5.55,0,0,0-4.62,2.39,9.73,9.73,0,0,0-1.8,6v12.14h-2v-22H342l.2,4h.14a9.39,9.39,0,0,1,2.9-3.41A6.78,6.78,0,0,1,348.93,491.72Z" style="fill: #fff"/>
          <path d="M369.76,514.14l-.51-3.48h-.16a10.57,10.57,0,0,1-3.41,3,9.22,9.22,0,0,1-4.14.88,7.19,7.19,0,0,1-5-1.66,6,6,0,0,1-1.8-4.6,5.67,5.67,0,0,1,2.68-5c1.79-1.18,4.37-1.81,7.76-1.88l4.19-.12v-1.46a7.47,7.47,0,0,0-1.27-4.73,4.93,4.93,0,0,0-4.11-1.6,13.81,13.81,0,0,0-6.34,1.7l-.75-1.74a16.86,16.86,0,0,1,7.17-1.7,7.15,7.15,0,0,1,5.41,1.88c1.2,1.26,1.79,3.21,1.79,5.87v14.63Zm-8.1-1.41a7,7,0,0,0,7.59-7.61V503l-3.84.16c-3.09.15-5.3.63-6.61,1.45a4.17,4.17,0,0,0-2,3.82,4.11,4.11,0,0,0,1.27,3.2A5.14,5.14,0,0,0,361.66,512.73Z" style="fill: #fff"/>
          <path d="M384.17,512.77a14.7,14.7,0,0,0,3.31-.33v1.62a10.71,10.71,0,0,1-3.36.49,5.48,5.48,0,0,1-4.3-1.56q-1.38-1.56-1.38-4.9V493.88h-3.26v-1.17l3.26-.91,1-5h1v5.32h6.46v1.74h-6.46v13.93a6.38,6.38,0,0,0,.89,3.74A3.25,3.25,0,0,0,384.17,512.77Z" style="fill: #fff"/>
          <path d="M392,486c0-1.29.42-1.94,1.27-1.94a1.12,1.12,0,0,1,1,.51,2.42,2.42,0,0,1,.36,1.43,2.51,2.51,0,0,1-.36,1.44,1.11,1.11,0,0,1-1,.53C392.38,488,392,487.34,392,486Zm2.28,28.11h-2v-22h2Z" style="fill: #fff"/>
          <path d="M419.8,503.11q0,5.38-2.61,8.41a9,9,0,0,1-7.2,3,9.34,9.34,0,0,1-5.1-1.4,8.93,8.93,0,0,1-3.38-4,14.61,14.61,0,0,1-1.18-6c0-3.59.88-6.38,2.62-8.39a9,9,0,0,1,7.16-3,8.79,8.79,0,0,1,7.11,3Q419.8,497.82,419.8,503.11Zm-17.36,0a11.23,11.23,0,0,0,2,7.08,7.53,7.53,0,0,0,11.28,0,11.29,11.29,0,0,0,2-7.08c0-3-.67-5.39-2-7.06a6.87,6.87,0,0,0-5.66-2.51,6.74,6.74,0,0,0-5.62,2.5C403.1,497.71,402.44,500.06,402.44,503.11Z" style="fill: #fff"/>
          <path d="M441.24,514.14V499.88q0-3.33-1.4-4.83a5.62,5.62,0,0,0-4.33-1.51c-2.63,0-4.56.67-5.78,2S427.9,499,427.9,502v12.14h-2v-22h1.69l.39,3h.12q2.14-3.44,7.63-3.44,7.49,0,7.49,8v14.39Z" style="fill: #fff"/>
          <path d="M464,508.42a5.25,5.25,0,0,1-2.24,4.54,11,11,0,0,1-6.38,1.59,15.12,15.12,0,0,1-7-1.36V511a15.54,15.54,0,0,0,7,1.66,9.27,9.27,0,0,0,4.95-1.09,3.28,3.28,0,0,0,1.69-2.88,3.49,3.49,0,0,0-1.35-2.79,14.62,14.62,0,0,0-4.42-2.23,25.79,25.79,0,0,1-4.63-2.05,6.63,6.63,0,0,1-2-1.95,4.89,4.89,0,0,1-.67-2.64,4.5,4.5,0,0,1,2.07-3.9,10.07,10.07,0,0,1,5.8-1.44,17.38,17.38,0,0,1,6.76,1.33l-.75,1.83a15.87,15.87,0,0,0-6-1.34,8.72,8.72,0,0,0-4.27.89,2.75,2.75,0,0,0-1.58,2.47,3.43,3.43,0,0,0,1.22,2.75,17.16,17.16,0,0,0,4.79,2.31,23.43,23.43,0,0,1,4.33,1.93,6.37,6.37,0,0,1,2,2A4.67,4.67,0,0,1,464,508.42Z" style="fill: #fff"/>
        </g>
        <g>
          <path d="M174.27,608.55V627.7q0,5.1-3,8t-8.23,2.88c-3.43,0-6.1-1-8-2.89s-2.88-4.6-2.88-8V608.55h2.08V627.7a8.25,8.25,0,0,0,9.07,9,8.09,8.09,0,0,0,8.88-8.83V608.55Z" style="fill: #fff"/>
          <path d="M195.46,632.42a5.23,5.23,0,0,1-2.25,4.54,10.92,10.92,0,0,1-6.37,1.59,15.17,15.17,0,0,1-7-1.36V635a15.58,15.58,0,0,0,7,1.66,9.21,9.21,0,0,0,4.94-1.09,3.28,3.28,0,0,0,1.69-2.88,3.48,3.48,0,0,0-1.34-2.79,14.75,14.75,0,0,0-4.42-2.23,26,26,0,0,1-4.64-2.05,6.48,6.48,0,0,1-2-1.95,4.89,4.89,0,0,1-.68-2.64,4.49,4.49,0,0,1,2.08-3.9,10,10,0,0,1,5.79-1.44,17.34,17.34,0,0,1,6.76,1.33l-.75,1.83a15.87,15.87,0,0,0-6-1.34,8.78,8.78,0,0,0-4.27.89,2.75,2.75,0,0,0-1.58,2.47,3.41,3.41,0,0,0,1.23,2.75,16.87,16.87,0,0,0,4.79,2.31,23.75,23.75,0,0,1,4.33,1.93,6.37,6.37,0,0,1,2,2A4.76,4.76,0,0,1,195.46,632.42Z" style="fill: #fff"/>
          <path d="M210,638.55a9.59,9.59,0,0,1-7.48-3q-2.68-3-2.68-8.27a12.88,12.88,0,0,1,2.59-8.43,8.55,8.55,0,0,1,7-3.17,7.52,7.52,0,0,1,6.13,2.71,11.19,11.19,0,0,1,2.25,7.37v1.62H202q0,4.53,2.12,6.92a7.44,7.44,0,0,0,5.94,2.39,18,18,0,0,0,3.31-.27,19.72,19.72,0,0,0,3.61-1.13v1.82a15.78,15.78,0,0,1-3.44,1.1A18.65,18.65,0,0,1,210,638.55Zm-.59-21a6.6,6.6,0,0,0-5.1,2.09,9.87,9.87,0,0,0-2.24,6h13.6a9.62,9.62,0,0,0-1.66-6A5.48,5.48,0,0,0,209.42,617.5Z" style="fill: #fff"/>
          <path d="M232.53,615.72a17.18,17.18,0,0,1,3,.28l-.39,1.93a11.59,11.59,0,0,0-2.85-.35,5.55,5.55,0,0,0-4.61,2.39,9.73,9.73,0,0,0-1.8,6v12.14h-2v-22h1.7l.2,4h.15a9.28,9.28,0,0,1,2.89-3.41A6.81,6.81,0,0,1,232.53,615.72Z" style="fill: #fff"/>
          <path d="M251.27,638.14V608.55h2.07v29.59Z" style="fill: #fff"/>
          <path d="M276.55,638.14V623.88q0-3.33-1.4-4.83a5.61,5.61,0,0,0-4.33-1.51c-2.63,0-4.55.67-5.77,2s-1.84,3.49-1.84,6.47v12.14h-2v-22h1.7l.38,3h.13q2.15-3.43,7.63-3.44,7.49,0,7.48,8v14.39Z" style="fill: #fff"/>
          <path d="M291.47,636.77a14.7,14.7,0,0,0,3.31-.33v1.62a10.69,10.69,0,0,1-3.35.49,5.49,5.49,0,0,1-4.31-1.56q-1.38-1.56-1.38-4.9V617.88h-3.26v-1.17l3.26-.91,1-5h1v5.32h6.46v1.74h-6.46v13.93a6.38,6.38,0,0,0,.89,3.74A3.25,3.25,0,0,0,291.47,636.77Z" style="fill: #fff"/>
          <path d="M308.43,638.55a9.58,9.58,0,0,1-7.48-3q-2.68-3-2.68-8.27a12.88,12.88,0,0,1,2.59-8.43,8.54,8.54,0,0,1,7-3.17,7.53,7.53,0,0,1,6.13,2.71,11.19,11.19,0,0,1,2.25,7.37v1.62H300.37c0,3,.73,5.33,2.12,6.92a7.44,7.44,0,0,0,5.94,2.39,17.89,17.89,0,0,0,3.3-.27,19.55,19.55,0,0,0,3.62-1.13v1.82a16,16,0,0,1-3.44,1.1A18.8,18.8,0,0,1,308.43,638.55Zm-.59-21a6.6,6.6,0,0,0-5.1,2.09,9.93,9.93,0,0,0-2.25,6h13.6a9.55,9.55,0,0,0-1.66-6A5.46,5.46,0,0,0,307.84,617.5Z" style="fill: #fff"/>
          <path d="M331,615.72a17,17,0,0,1,3,.28l-.38,1.93a11.71,11.71,0,0,0-2.85-.35,5.55,5.55,0,0,0-4.62,2.39,9.73,9.73,0,0,0-1.8,6v12.14h-2v-22H324l.2,4h.14a9.39,9.39,0,0,1,2.9-3.41A6.78,6.78,0,0,1,331,615.72Z" style="fill: #fff"/>
          <path d="M351.77,638.14l-.5-3.48h-.16a10.57,10.57,0,0,1-3.41,3,9.22,9.22,0,0,1-4.14.88,7.19,7.19,0,0,1-5-1.66,6,6,0,0,1-1.8-4.6,5.67,5.67,0,0,1,2.68-5c1.79-1.18,4.37-1.81,7.76-1.88l4.19-.12v-1.46a7.47,7.47,0,0,0-1.28-4.73,4.91,4.91,0,0,0-4.1-1.6,13.81,13.81,0,0,0-6.34,1.7l-.75-1.74a16.86,16.86,0,0,1,7.17-1.7,7.15,7.15,0,0,1,5.41,1.88c1.2,1.26,1.79,3.21,1.79,5.87v14.63Zm-8.09-1.41a7,7,0,0,0,7.59-7.61V627l-3.85.16q-4.64.23-6.6,1.45a4.17,4.17,0,0,0-2,3.82,4.07,4.07,0,0,0,1.27,3.2A5.14,5.14,0,0,0,343.68,636.73Z" style="fill: #fff"/>
          <path d="M369.16,638.55a9.4,9.4,0,0,1-7.39-3c-1.78-2-2.67-4.75-2.67-8.29s.92-6.48,2.77-8.51a9.73,9.73,0,0,1,7.59-3,15.32,15.32,0,0,1,5.47,1l-.55,1.78a16.17,16.17,0,0,0-5-1,7.51,7.51,0,0,0-6.13,2.5c-1.39,1.67-2.09,4.06-2.09,7.19a10.65,10.65,0,0,0,2.09,7,7.14,7.14,0,0,0,5.83,2.52,14.2,14.2,0,0,0,5.56-1.08v1.87A12.7,12.7,0,0,1,369.16,638.55Z" style="fill: #fff"/>
          <path d="M385.87,636.77a14.73,14.73,0,0,0,3.32-.33v1.62a10.71,10.71,0,0,1-3.36.49,5.48,5.48,0,0,1-4.3-1.56q-1.38-1.56-1.38-4.9V617.88h-3.26v-1.17l3.26-.91,1-5h1v5.32h6.46v1.74h-6.46v13.93a6.38,6.38,0,0,0,.89,3.74A3.23,3.23,0,0,0,385.87,636.77Z" style="fill: #fff"/>
          <path d="M393.67,610c0-1.29.42-1.94,1.27-1.94a1.12,1.12,0,0,1,1,.51,2.42,2.42,0,0,1,.36,1.43,2.51,2.51,0,0,1-.36,1.44,1.11,1.11,0,0,1-1,.53C394.09,612,393.67,611.34,393.67,610ZM396,638.14h-2v-22h2Z" style="fill: #fff"/>
          <path d="M421.51,627.11q0,5.39-2.61,8.41a9,9,0,0,1-7.2,3,9.34,9.34,0,0,1-5.1-1.4,8.93,8.93,0,0,1-3.38-4,14.61,14.61,0,0,1-1.18-6c0-3.59.88-6.38,2.62-8.39a9,9,0,0,1,7.16-3,8.79,8.79,0,0,1,7.11,3Q421.51,621.81,421.51,627.11Zm-17.36,0a11.23,11.23,0,0,0,2,7.08,7.53,7.53,0,0,0,11.28,0,11.29,11.29,0,0,0,2-7.08c0-3-.67-5.39-2-7.06a6.87,6.87,0,0,0-5.66-2.51,6.74,6.74,0,0,0-5.62,2.5C404.81,621.71,404.15,624.06,404.15,627.11Z" style="fill: #fff"/>
          <path d="M443,638.14V623.88q0-3.33-1.4-4.83a5.62,5.62,0,0,0-4.33-1.51c-2.63,0-4.56.67-5.78,2s-1.83,3.49-1.83,6.47v12.14h-2v-22h1.69l.39,3h.12q2.15-3.43,7.63-3.44,7.49,0,7.49,8v14.39Z" style="fill: #fff"/>
          <path d="M465.69,632.42a5.25,5.25,0,0,1-2.24,4.54,11,11,0,0,1-6.38,1.59,15.12,15.12,0,0,1-7-1.36V635a15.54,15.54,0,0,0,7,1.66A9.27,9.27,0,0,0,462,635.6a3.28,3.28,0,0,0,1.69-2.88,3.49,3.49,0,0,0-1.35-2.79,14.62,14.62,0,0,0-4.42-2.23,25.79,25.79,0,0,1-4.63-2.05,6.63,6.63,0,0,1-2-1.95,4.89,4.89,0,0,1-.67-2.64,4.5,4.5,0,0,1,2.07-3.9,10.07,10.07,0,0,1,5.8-1.44,17.38,17.38,0,0,1,6.76,1.33l-.75,1.83a15.87,15.87,0,0,0-6-1.34,8.72,8.72,0,0,0-4.27.89,2.75,2.75,0,0,0-1.58,2.47,3.43,3.43,0,0,0,1.22,2.75,17.16,17.16,0,0,0,4.79,2.31,23.43,23.43,0,0,1,4.33,1.93,6.37,6.37,0,0,1,2,2A4.67,4.67,0,0,1,465.69,632.42Z" style="fill: #fff"/>
        </g>
      </g>
    </g>
  </g>
</svg>
